<svg id="my-svg" width="100%" xmlns="http://www.w3.org/2000/svg" xmlns:xlink="http://www.w3.org/1999/xlink" class="classDiagram" style="max-width: 884.133px; background-color: white;" viewBox="0 0 884.1328125 546" role="graphics-document document" aria-roledescription="class"><style>#my-svg{font-family:"trebuchet ms",verdana,arial,sans-serif;font-size:16px;fill:#333;}@keyframes edge-animation-frame{from{stroke-dashoffset:0;}}@keyframes dash{to{stroke-dashoffset:0;}}#my-svg .edge-animation-slow{stroke-dasharray:9,5!important;stroke-dashoffset:900;animation:dash 50s linear infinite;stroke-linecap:round;}#my-svg .edge-animation-fast{stroke-dasharray:9,5!important;stroke-dashoffset:900;animation:dash 20s linear infinite;stroke-linecap:round;}#my-svg .error-icon{fill:#552222;}#my-svg .error-text{fill:#552222;stroke:#552222;}#my-svg .edge-thickness-normal{stroke-width:1px;}#my-svg .edge-thickness-thick{stroke-width:3.5px;}#my-svg .edge-pattern-solid{stroke-dasharray:0;}#my-svg .edge-thickness-invisible{stroke-width:0;fill:none;}#my-svg .edge-pattern-dashed{stroke-dasharray:3;}#my-svg .edge-pattern-dotted{stroke-dasharray:2;}#my-svg .marker{fill:#333333;stroke:#333333;}#my-svg .marker.cross{stroke:#333333;}#my-svg svg{font-family:"trebuchet ms",verdana,arial,sans-serif;font-size:16px;}#my-svg p{margin:0;}#my-svg g.classGroup text{fill:#9370DB;stroke:none;font-family:"trebuchet ms",verdana,arial,sans-serif;font-size:10px;}#my-svg g.classGroup text .title{font-weight:bolder;}#my-svg .cluster-label text{fill:#333;}#my-svg .cluster-label span{color:#333;}#my-svg .cluster-label span p{background-color:transparent;}#my-svg .cluster rect{fill:#ffffde;stroke:#aaaa33;stroke-width:1px;}#my-svg .cluster text{fill:#333;}#my-svg .cluster span{color:#333;}#my-svg .nodeLabel,#my-svg .edgeLabel{color:#131300;}#my-svg .noteLabel .nodeLabel,#my-svg .noteLabel .edgeLabel{color:black;}#my-svg .edgeLabel .label rect{fill:#ECECFF;}#my-svg .label text{fill:#131300;}#my-svg .labelBkg{background:#ECECFF;}#my-svg .edgeLabel .label span{background:#ECECFF;}#my-svg .classTitle{font-weight:bolder;}#my-svg .node rect,#my-svg .node circle,#my-svg .node ellipse,#my-svg .node polygon,#my-svg .node path{fill:#ECECFF;stroke:#9370DB;stroke-width:1;}#my-svg .divider{stroke:#9370DB;stroke-width:1;}#my-svg g.clickable{cursor:pointer;}#my-svg g.classGroup rect{fill:#ECECFF;stroke:#9370DB;}#my-svg g.classGroup line{stroke:#9370DB;stroke-width:1;}#my-svg .classLabel .box{stroke:none;stroke-width:0;fill:#ECECFF;opacity:0.5;}#my-svg .classLabel .label{fill:#9370DB;font-size:10px;}#my-svg .relation{stroke:#333333;stroke-width:1;fill:none;}#my-svg .dashed-line{stroke-dasharray:3;}#my-svg .dotted-line{stroke-dasharray:1 2;}#my-svg [id$="-compositionStart"],#my-svg .composition{fill:#333333!important;stroke:#333333!important;stroke-width:1;}#my-svg [id$="-compositionEnd"],#my-svg .composition{fill:#333333!important;stroke:#333333!important;stroke-width:1;}#my-svg [id$="-dependencyStart"],#my-svg .dependency{fill:#333333!important;stroke:#333333!important;stroke-width:1;}#my-svg [id$="-dependencyEnd"],#my-svg .dependency{fill:#333333!important;stroke:#333333!important;stroke-width:1;}#my-svg [id$="-extensionStart"],#my-svg .extension{fill:transparent!important;stroke:#333333!important;stroke-width:1;}#my-svg [id$="-extensionEnd"],#my-svg .extension{fill:transparent!important;stroke:#333333!important;stroke-width:1;}#my-svg [id$="-aggregationStart"],#my-svg .aggregation{fill:transparent!important;stroke:#333333!important;stroke-width:1;}#my-svg [id$="-aggregationEnd"],#my-svg .aggregation{fill:transparent!important;stroke:#333333!important;stroke-width:1;}#my-svg [id$="-lollipopStart"],#my-svg .lollipop{fill:#ECECFF!important;stroke:#333333!important;stroke-width:1;}#my-svg [id$="-lollipopEnd"],#my-svg .lollipop{fill:#ECECFF!important;stroke:#333333!important;stroke-width:1;}#my-svg .edgeTerminals{font-size:11px;line-height:initial;}#my-svg .classTitleText{text-anchor:middle;font-size:18px;fill:#333;}#my-svg .edgeLabel[data-look="neo"]{background-color:rgba(232,232,232, 0.8);text-align:center;}#my-svg .edgeLabel[data-look="neo"] p{background-color:rgba(232,232,232, 0.8);}#my-svg .edgeLabel[data-look="neo"] rect{opacity:0.5;background-color:rgba(232,232,232, 0.8);fill:rgba(232,232,232, 0.8);}#my-svg .label-icon{display:inline-block;height:1em;overflow:visible;vertical-align:-0.125em;}#my-svg .node .label-icon path{fill:currentColor;stroke:revert;stroke-width:revert;}#my-svg .node .neo-node{stroke:#9370DB;}#my-svg [data-look="neo"].node rect,#my-svg [data-look="neo"].cluster rect,#my-svg [data-look="neo"].node polygon{stroke:#9370DB;filter:drop-shadow(1px 2px 2px rgba(185, 185, 185, 1));}#my-svg [data-look="neo"].node path{stroke:#9370DB;stroke-width:1px;}#my-svg [data-look="neo"].node .outer-path{filter:drop-shadow(1px 2px 2px rgba(185, 185, 185, 1));}#my-svg [data-look="neo"].node .neo-line path{stroke:#9370DB;filter:none;}#my-svg [data-look="neo"].node circle{stroke:#9370DB;filter:drop-shadow(1px 2px 2px rgba(185, 185, 185, 1));}#my-svg [data-look="neo"].node circle .state-start{fill:#000000;}#my-svg [data-look="neo"].icon-shape .icon{fill:#9370DB;filter:drop-shadow(1px 2px 2px rgba(185, 185, 185, 1));}#my-svg [data-look="neo"].icon-shape .icon-neo path{stroke:#9370DB;filter:drop-shadow(1px 2px 2px rgba(185, 185, 185, 1));}#my-svg :root{--mermaid-font-family:"trebuchet ms",verdana,arial,sans-serif;}</style><g><defs><marker id="my-svg_class-aggregationStart" class="marker aggregation class" refX="18" refY="7" markerWidth="190" markerHeight="240" orient="auto"><path d="M 18,7 L9,13 L1,7 L9,1 Z"/></marker></defs><defs><marker id="my-svg_class-aggregationEnd" class="marker aggregation class" refX="1" refY="7" markerWidth="20" markerHeight="28" orient="auto"><path d="M 18,7 L9,13 L1,7 L9,1 Z"/></marker></defs><defs><marker id="my-svg_class-aggregationStart-margin" class="marker aggregation class" refX="15" refY="7" markerWidth="190" markerHeight="240" orient="auto" markerUnits="userSpaceOnUse"><path d="M 18,7 L9,13 L1,7 L9,1 Z" style="stroke-width: 2;"/></marker></defs><defs><marker id="my-svg_class-aggregationEnd-margin" class="marker aggregation class" refX="1" refY="7" markerWidth="20" markerHeight="28" orient="auto" markerUnits="userSpaceOnUse"><path d="M 18,7 L9,13 L1,7 L9,1 Z" style="stroke-width: 2;"/></marker></defs><defs><marker id="my-svg_class-extensionStart" class="marker extension class" refX="18" refY="7" markerWidth="190" markerHeight="240" orient="auto" markerUnits="userSpaceOnUse"><path d="M 1,7 L18,13 V 1 Z"/></marker></defs><defs><marker id="my-svg_class-extensionEnd" class="marker extension class" refX="1" refY="7" markerWidth="20" markerHeight="28" orient="auto"><path d="M 1,1 V 13 L18,7 Z"/></marker></defs><marker id="my-svg_class-extensionStart-margin" class="marker extension class" refX="18" refY="7" markerWidth="20" markerHeight="28" orient="auto" markerUnits="userSpaceOnUse" viewBox="0 0 20 14"><polygon points="10,7 18,13 18,1" style="stroke-width: 2; stroke-dasharray: 0;"/></marker><defs><marker id="my-svg_class-extensionEnd-margin" class="marker extension class" refX="9" refY="7" markerWidth="20" markerHeight="28" orient="auto" markerUnits="userSpaceOnUse" viewBox="0 0 20 14"><polygon points="10,1 10,13 18,7" style="stroke-width: 2; stroke-dasharray: 0;"/></marker></defs><defs><marker id="my-svg_class-compositionStart" class="marker composition class" refX="18" refY="7" markerWidth="190" markerHeight="240" orient="auto"><path d="M 18,7 L9,13 L1,7 L9,1 Z"/></marker></defs><defs><marker id="my-svg_class-compositionEnd" class="marker composition class" refX="1" refY="7" markerWidth="20" markerHeight="28" orient="auto"><path d="M 18,7 L9,13 L1,7 L9,1 Z"/></marker></defs><defs><marker id="my-svg_class-compositionStart-margin" class="marker composition class" refX="15" refY="7" markerWidth="190" markerHeight="240" orient="auto" markerUnits="userSpaceOnUse"><path viewBox="0 0 15 15" d="M 18,7 L9,13 L1,7 L9,1 Z" style="stroke-width: 0;"/></marker></defs><defs><marker id="my-svg_class-compositionEnd-margin" class="marker composition class" refX="3.5" refY="7" markerWidth="20" markerHeight="28" orient="auto" markerUnits="userSpaceOnUse"><path d="M 18,7 L9,13 L1,7 L9,1 Z" style="stroke-width: 0;"/></marker></defs><defs><marker id="my-svg_class-dependencyStart" class="marker dependency class" refX="6" refY="7" markerWidth="190" markerHeight="240" orient="auto"><path d="M 5,7 L9,13 L1,7 L9,1 Z"/></marker></defs><defs><marker id="my-svg_class-dependencyEnd" class="marker dependency class" refX="13" refY="7" markerWidth="20" markerHeight="28" orient="auto"><path d="M 18,7 L9,13 L14,7 L9,1 Z"/></marker></defs><defs><marker id="my-svg_class-dependencyStart-margin" class="marker dependency class" refX="4" refY="7" markerWidth="190" markerHeight="240" orient="auto" markerUnits="userSpaceOnUse"><path d="M 5,7 L9,13 L1,7 L9,1 Z" style="stroke-width: 0;"/></marker></defs><defs><marker id="my-svg_class-dependencyEnd-margin" class="marker dependency class" refX="16" refY="7" markerWidth="20" markerHeight="28" orient="auto" markerUnits="userSpaceOnUse"><path d="M 18,7 L9,13 L14,7 L9,1 Z" style="stroke-width: 0;"/></marker></defs><defs><marker id="my-svg_class-lollipopStart" class="marker lollipop class" refX="13" refY="7" markerWidth="190" markerHeight="240" orient="auto"><circle fill="transparent" cx="7" cy="7" r="6"/></marker></defs><defs><marker id="my-svg_class-lollipopEnd" class="marker lollipop class" refX="1" refY="7" markerWidth="190" markerHeight="240" orient="auto"><circle fill="transparent" cx="7" cy="7" r="6"/></marker></defs><defs><marker id="my-svg_class-lollipopStart-margin" class="marker lollipop class" refX="13" refY="7" markerWidth="190" markerHeight="240" orient="auto" markerUnits="userSpaceOnUse"><circle fill="transparent" cx="7" cy="7" r="6" stroke-width="2"/></marker></defs><defs><marker id="my-svg_class-lollipopEnd-margin" class="marker lollipop class" refX="1" refY="7" markerWidth="190" markerHeight="240" orient="auto" markerUnits="userSpaceOnUse"><circle fill="transparent" cx="7" cy="7" r="6" stroke-width="2"/></marker></defs><g class="root"><g class="clusters"/><g class="edgePaths"><path d="M692.836,158L692.836,183.167C692.836,208.333,692.836,258.667,692.836,290C692.836,321.333,692.836,333.667,692.836,339.833L692.836,346" id="my-svg-edgeNote0" class="edge-thickness-normal edge-pattern-dotted relation" style="fill: none;;;fill: none" data-edge="true" data-et="edge" data-id="edgeNote0" data-points="W3sieCI6NjkyLjgzNTkzNzUsInkiOjE1OH0seyJ4Ijo2OTIuODM1OTM3NSwieSI6MzA5fSx7IngiOjY5Mi44MzU5Mzc1LCJ5IjozNDZ9XQ==" data-look="classic"/><path d="M102.082,229.25L102.082,242.542C102.082,255.833,102.082,282.417,102.082,307.875C102.082,333.333,102.082,357.667,102.082,369.833L102.082,382" id="my-svg-id_TaskRequest_TaskInput_1" class="edge-thickness-normal edge-pattern-solid relation" style=";;;" data-edge="true" data-et="edge" data-id="id_TaskRequest_TaskInput_1" data-points="W3sieCI6MTAyLjA4MjAzMTI1LCJ5IjoyMTJ9LHsieCI6MTAyLjA4MjAzMTI1LCJ5IjozMDl9LHsieCI6MTAyLjA4MjAzMTI1LCJ5IjozODJ9XQ==" data-look="classic" marker-start="url(#my-svg_class-compositionStart)"/></g><g class="edgeLabels"><g class="edgeLabel"><g class="label" data-id="edgeNote0" transform="translate(0, 0)"><foreignObject width="0" height="0"><div xmlns="http://www.w3.org/1999/xhtml" class="labelBkg" style="display: table-cell; white-space: nowrap; line-height: 1.5; max-width: 200px; text-align: center;"><span class="edgeLabel"></span></div></foreignObject></g></g><g class="edgeLabel" transform="translate(102.08203125, 309)"><g class="label" data-id="id_TaskRequest_TaskInput_1" transform="translate(-29.890625, -12)"><foreignObject width="59.78125" height="24"><div xmlns="http://www.w3.org/1999/xhtml" class="labelBkg" style="display: table-cell; white-space: nowrap; line-height: 1.5; max-width: 200px; text-align: center;"><span class="edgeLabel"><p>contains</p></span></div></foreignObject></g></g></g><g class="nodes"><g class="node default" id="my-svg-classId-TaskInput-0" data-look="classic" transform="translate(102.08203125, 442)"><g class="basic label-container outer-path"><path d="M-60.6484375 -60 L60.6484375 -60 L60.6484375 60 L-60.6484375 60" stroke="none" stroke-width="0" fill="#ECECFF" style=""/><path d="M-60.6484375 -60 C-15.579167871790965 -60, 29.49010175641807 -60, 60.6484375 -60 M-60.6484375 -60 C-32.56939266663535 -60, -4.490347833270697 -60, 60.6484375 -60 M60.6484375 -60 C60.6484375 -35.289173133546896, 60.6484375 -10.578346267093792, 60.6484375 60 M60.6484375 -60 C60.6484375 -34.214997788879025, 60.6484375 -8.42999557775805, 60.6484375 60 M60.6484375 60 C27.768816197422517 60, -5.1108051051549666 60, -60.6484375 60 M60.6484375 60 C18.72231182555013 60, -23.203813848899742 60, -60.6484375 60 M-60.6484375 60 C-60.6484375 33.35059136012504, -60.6484375 6.701182720250081, -60.6484375 -60 M-60.6484375 60 C-60.6484375 19.294290632860893, -60.6484375 -21.411418734278215, -60.6484375 -60" stroke="#9370DB" stroke-width="1.3" fill="none" stroke-dasharray="0 0" style=""/></g><g class="annotation-group text" transform="translate(0, -36)"/><g class="label-group text" transform="translate(-35.609375, -36)"><g class="label" style="font-weight: bolder" transform="translate(0,-12)"><foreignObject width="71.21875" height="24"><div xmlns="http://www.w3.org/1999/xhtml" style="display: table-cell; white-space: nowrap; line-height: 1.5; max-width: 114px; text-align: center;"><span class="nodeLabel markdown-node-label" style=""><p>TaskInput</p></span></div></foreignObject></g></g><g class="members-group text" transform="translate(-48.6484375, 12)"><g class="label" style="" transform="translate(0,-12)"><foreignObject width="61.6875" height="24"><div xmlns="http://www.w3.org/1999/xhtml" style="display: table-cell; white-space: nowrap; line-height: 1.5; max-width: 107px; text-align: center;"><span class="nodeLabel markdown-node-label" style=""><p>+str text</p></span></div></foreignObject></g></g><g class="methods-group text" transform="translate(-48.6484375, 60)"/><g class="divider" style=""><path d="M-60.6484375 -12 C-35.51838806367705 -11.999792821954925, -10.388338627354102 -11.999585643909848, 60.6484375 -11.999 M-60.6484375 -12 C-27.961413633765524 -11.999730520478238, 4.725610232468952 -11.999461040956476, 60.6484375 -11.999" stroke="#9370DB" stroke-width="1.3" fill="none" stroke-dasharray="0 0" style=""/></g><g class="divider" style=""><path d="M-60.6484375 36 C-22.656815141833142 36.00031321188084, 15.334807216333715 36.000626423761666, 60.6484375 36.001 M-60.6484375 36 C-30.32141714123734 36.000250023097124, 0.005603217525319337 36.00050004619424, 60.6484375 36.001" stroke="#9370DB" stroke-width="1.3" fill="none" stroke-dasharray="0 0" style=""/></g></g><g class="node default" id="my-svg-classId-TaskRequest-1" data-look="classic" transform="translate(102.08203125, 140)"><g class="basic label-container outer-path"><path d="M-94.08203125 -72 L94.08203125 -72 L94.08203125 72 L-94.08203125 72" stroke="none" stroke-width="0" fill="#ECECFF" style=""/><path d="M-94.08203125 -72 C-39.12650906343086 -72, 15.829013123138282 -72, 94.08203125 -72 M-94.08203125 -72 C-46.84200533033131 -72, 0.39802058933737783 -72, 94.08203125 -72 M94.08203125 -72 C94.08203125 -28.064564608026302, 94.08203125 15.870870783947396, 94.08203125 72 M94.08203125 -72 C94.08203125 -26.823040433674784, 94.08203125 18.353919132650432, 94.08203125 72 M94.08203125 72 C39.087396569638834 72, -15.907238110722332 72, -94.08203125 72 M94.08203125 72 C44.61242909100561 72, -4.857173067988782 72, -94.08203125 72 M-94.08203125 72 C-94.08203125 42.79061377114837, -94.08203125 13.581227542296752, -94.08203125 -72 M-94.08203125 72 C-94.08203125 39.767976725277, -94.08203125 7.535953450554004, -94.08203125 -72" stroke="#9370DB" stroke-width="1.3" fill="none" stroke-dasharray="0 0" style=""/></g><g class="annotation-group text" transform="translate(0, -48)"/><g class="label-group text" transform="translate(-46.1953125, -48)"><g class="label" style="font-weight: bolder" transform="translate(0,-12)"><foreignObject width="92.390625" height="24"><div xmlns="http://www.w3.org/1999/xhtml" style="display: table-cell; white-space: nowrap; line-height: 1.5; max-width: 132px; text-align: center;"><span class="nodeLabel markdown-node-label" style=""><p>TaskRequest</p></span></div></foreignObject></g></g><g class="members-group text" transform="translate(-82.08203125, 0)"><g class="label" style="" transform="translate(0,-12)"><foreignObject width="45.734375" height="24"><div xmlns="http://www.w3.org/1999/xhtml" style="display: table-cell; white-space: nowrap; line-height: 1.5; max-width: 96px; text-align: center;"><span class="nodeLabel markdown-node-label" style=""><p>+str id</p></span></div></foreignObject></g><g class="label" style="" transform="translate(0,12)"><foreignObject width="117.96875" height="24"><div xmlns="http://www.w3.org/1999/xhtml" style="display: table-cell; white-space: nowrap; line-height: 1.5; max-width: 164px; text-align: center;"><span class="nodeLabel markdown-node-label" style=""><p>+TaskInput input</p></span></div></foreignObject></g></g><g class="methods-group text" transform="translate(-82.08203125, 72)"/><g class="divider" style=""><path d="M-94.08203125 -24 C-41.001495490797694 -23.999717902903168, 12.079040268404611 -23.999435805806336, 94.08203125 -23.999 M-94.08203125 -24 C-49.71832824097627 -23.99976422860763, -5.354625231952539 -23.999528457215266, 94.08203125 -23.999" stroke="#9370DB" stroke-width="1.3" fill="none" stroke-dasharray="0 0" style=""/></g><g class="divider" style=""><path d="M-94.08203125 48 C-21.687228248552188 48.0003847429846, 50.707574752895624 48.00076948596921, 94.08203125 48.001 M-94.08203125 48 C-36.812912834067255 48.00030435736588, 20.45620558186549 48.00060871473176, 94.08203125 48.001" stroke="#9370DB" stroke-width="1.3" fill="none" stroke-dasharray="0 0" style=""/></g></g><g class="node default" id="my-svg-classId-TaskResponse-2" data-look="classic" transform="translate(692.8359375, 442)"><g class="basic label-container outer-path"><path d="M-78.5859375 -96 L78.5859375 -96 L78.5859375 96 L-78.5859375 96" stroke="none" stroke-width="0" fill="#ECECFF" style=""/><path d="M-78.5859375 -96 C-24.05473892789245 -96, 30.476459644215097 -96, 78.5859375 -96 M-78.5859375 -96 C-41.91426453847245 -96, -5.242591576944903 -96, 78.5859375 -96 M78.5859375 -96 C78.5859375 -20.267843843010695, 78.5859375 55.46431231397861, 78.5859375 96 M78.5859375 -96 C78.5859375 -47.27061979144747, 78.5859375 1.4587604171050543, 78.5859375 96 M78.5859375 96 C41.624683082782106 96, 4.663428665564211 96, -78.5859375 96 M78.5859375 96 C20.226037205153062 96, -38.133863089693875 96, -78.5859375 96 M-78.5859375 96 C-78.5859375 37.67250756092336, -78.5859375 -20.654984878153286, -78.5859375 -96 M-78.5859375 96 C-78.5859375 29.885745904224677, -78.5859375 -36.228508191550645, -78.5859375 -96" stroke="#9370DB" stroke-width="1.3" fill="none" stroke-dasharray="0 0" style=""/></g><g class="annotation-group text" transform="translate(0, -72)"/><g class="label-group text" transform="translate(-50.984375, -72)"><g class="label" style="font-weight: bolder" transform="translate(0,-12)"><foreignObject width="101.96875" height="24"><div xmlns="http://www.w3.org/1999/xhtml" style="display: table-cell; white-space: nowrap; line-height: 1.5; max-width: 141px; text-align: center;"><span class="nodeLabel markdown-node-label" style=""><p>TaskResponse</p></span></div></foreignObject></g></g><g class="members-group text" transform="translate(-66.5859375, -24)"><g class="label" style="" transform="translate(0,-12)"><foreignObject width="45.734375" height="24"><div xmlns="http://www.w3.org/1999/xhtml" style="display: table-cell; white-space: nowrap; line-height: 1.5; max-width: 96px; text-align: center;"><span class="nodeLabel markdown-node-label" style=""><p>+str id</p></span></div></foreignObject></g><g class="label" style="" transform="translate(0,12)"><foreignObject width="75.046875" height="24"><div xmlns="http://www.w3.org/1999/xhtml" style="display: table-cell; white-space: nowrap; line-height: 1.5; max-width: 120px; text-align: center;"><span class="nodeLabel markdown-node-label" style=""><p>+str status</p></span></div></foreignObject></g><g class="label" style="" transform="translate(0,36)"><foreignObject width="82.1875" height="24"><div xmlns="http://www.w3.org/1999/xhtml" style="display: table-cell; white-space: nowrap; line-height: 1.5; max-width: 127px; text-align: center;"><span class="nodeLabel markdown-node-label" style=""><p>+dict result</p></span></div></foreignObject></g><g class="label" style="" transform="translate(0,60)"><foreignObject width="68.21875" height="24"><div xmlns="http://www.w3.org/1999/xhtml" style="display: table-cell; white-space: nowrap; line-height: 1.5; max-width: 115px; text-align: center;"><span class="nodeLabel markdown-node-label" style=""><p>+str error</p></span></div></foreignObject></g></g><g class="methods-group text" transform="translate(-66.5859375, 96)"/><g class="divider" style=""><path d="M-78.5859375 -48 C-28.91641126323423 -47.99968397955272, 20.753114973531538 -47.99936795910545, 78.5859375 -47.999 M-78.5859375 -48 C-27.372634725053125 -47.99967415733397, 23.84066804989375 -47.99934831466794, 78.5859375 -47.999" stroke="#9370DB" stroke-width="1.3" fill="none" stroke-dasharray="0 0" style=""/></g><g class="divider" style=""><path d="M-78.5859375 72 C-32.16085829729882 72.000295377778, 14.264220905402354 72.00059075555602, 78.5859375 72.001 M-78.5859375 72 C-22.550053463001447 72.00035652615354, 33.485830573997106 72.00071305230706, 78.5859375 72.001" stroke="#9370DB" stroke-width="1.3" fill="none" stroke-dasharray="0 0" style=""/></g></g><g class="node default" id="my-svg-classId-AgentCard-3" data-look="classic" transform="translate(352.8515625, 140)"><g class="basic label-container outer-path"><path d="M-106.6875 -132 L106.6875 -132 L106.6875 132 L-106.6875 132" stroke="none" stroke-width="0" fill="#ECECFF" style=""/><path d="M-106.6875 -132 C-50.451855962281925 -132, 5.783788075436149 -132, 106.6875 -132 M-106.6875 -132 C-53.06217731374078 -132, 0.5631453725184343 -132, 106.6875 -132 M106.6875 -132 C106.6875 -67.63879962169055, 106.6875 -3.277599243381104, 106.6875 132 M106.6875 -132 C106.6875 -51.51058009955827, 106.6875 28.978839800883463, 106.6875 132 M106.6875 132 C27.323990261215215 132, -52.03951947756957 132, -106.6875 132 M106.6875 132 C63.963786122702054 132, 21.240072245404107 132, -106.6875 132 M-106.6875 132 C-106.6875 62.844060762171324, -106.6875 -6.311878475657352, -106.6875 -132 M-106.6875 132 C-106.6875 37.50101339300463, -106.6875 -56.99797321399075, -106.6875 -132" stroke="#9370DB" stroke-width="1.3" fill="none" stroke-dasharray="0 0" style=""/></g><g class="annotation-group text" transform="translate(0, -108)"/><g class="label-group text" transform="translate(-38.796875, -108)"><g class="label" style="font-weight: bolder" transform="translate(0,-12)"><foreignObject width="77.59375" height="24"><div xmlns="http://www.w3.org/1999/xhtml" style="display: table-cell; white-space: nowrap; line-height: 1.5; max-width: 120px; text-align: center;"><span class="nodeLabel markdown-node-label" style=""><p>AgentCard</p></span></div></foreignObject></g></g><g class="members-group text" transform="translate(-94.6875, -60)"><g class="label" style="" transform="translate(0,-12)"><foreignObject width="71.40625" height="24"><div xmlns="http://www.w3.org/1999/xhtml" style="display: table-cell; white-space: nowrap; line-height: 1.5; max-width: 118px; text-align: center;"><span class="nodeLabel markdown-node-label" style=""><p>+str name</p></span></div></foreignObject></g><g class="label" style="" transform="translate(0,12)"><foreignObject width="112.21875" height="24"><div xmlns="http://www.w3.org/1999/xhtml" style="display: table-cell; white-space: nowrap; line-height: 1.5; max-width: 155px; text-align: center;"><span class="nodeLabel markdown-node-label" style=""><p>+str description</p></span></div></foreignObject></g><g class="label" style="" transform="translate(0,36)"><foreignObject width="83.40625" height="24"><div xmlns="http://www.w3.org/1999/xhtml" style="display: table-cell; white-space: nowrap; line-height: 1.5; max-width: 131px; text-align: center;"><span class="nodeLabel markdown-node-label" style=""><p>+str version</p></span></div></foreignObject></g><g class="label" style="" transform="translate(0,60)"><foreignObject width="51.9375" height="24"><div xmlns="http://www.w3.org/1999/xhtml" style="display: table-cell; white-space: nowrap; line-height: 1.5; max-width: 101px; text-align: center;"><span class="nodeLabel markdown-node-label" style=""><p>+str url</p></span></div></foreignObject></g><g class="label" style="" transform="translate(0,84)"><foreignObject width="106.15625" height="24"><div xmlns="http://www.w3.org/1999/xhtml" style="display: table-cell; white-space: nowrap; line-height: 1.5; max-width: 192px; text-align: center;"><span class="nodeLabel markdown-node-label" style=""><p>+list&lt;str&gt; skills</p></span></div></foreignObject></g><g class="label" style="" transform="translate(0,108)"><foreignObject width="140.203125" height="24"><div xmlns="http://www.w3.org/1999/xhtml" style="display: table-cell; white-space: nowrap; line-height: 1.5; max-width: 180px; text-align: center;"><span class="nodeLabel markdown-node-label" style=""><p>+dict input_schema</p></span></div></foreignObject></g><g class="label" style="" transform="translate(0,132)"><foreignObject width="150.578125" height="24"><div xmlns="http://www.w3.org/1999/xhtml" style="display: table-cell; white-space: nowrap; line-height: 1.5; max-width: 188px; text-align: center;"><span class="nodeLabel markdown-node-label" style=""><p>+dict output_schema</p></span></div></foreignObject></g></g><g class="methods-group text" transform="translate(-94.6875, 132)"/><g class="divider" style=""><path d="M-106.6875 -84 C-33.89272553851967 -83.9996588411273, 38.90204892296066 -83.9993176822546, 106.6875 -83.999 M-106.6875 -84 C-48.422110417582985 -83.99972693431947, 9.84327916483403 -83.99945386863894, 106.6875 -83.999" stroke="#9370DB" stroke-width="1.3" fill="none" stroke-dasharray="0 0" style=""/></g><g class="divider" style=""><path d="M-106.6875 108 C-23.74811967451228 108.00038870242683, 59.19126065097544 108.00077740485366, 106.6875 108.001 M-106.6875 108 C-32.7804550219806 108.00034637162263, 41.1265899560388 108.00069274324525, 106.6875 108.001" stroke="#9370DB" stroke-width="1.3" fill="none" stroke-dasharray="0 0" style=""/></g></g><g class="node undefined" id="my-svg-note0" data-look="classic" transform="translate(692.8359375, 140)"><g class="basic label-container outer-path"><path d="M-183.296875 -18 L183.296875 -18 L183.296875 18 L-183.296875 18" stroke="none" stroke-width="0" fill="#fff5ad" style="fill:#fff5ad !important;stroke:#aaaa33 !important"/><path d="M-183.296875 -18 C-45.22113900856186 -18, 92.85459698287627 -18, 183.296875 -18 M-183.296875 -18 C-98.63089079723534 -18, -13.964906594470676 -18, 183.296875 -18 M183.296875 -18 C183.296875 -7.597850712311125, 183.296875 2.80429857537775, 183.296875 18 M183.296875 -18 C183.296875 -6.734102860672557, 183.296875 4.5317942786548855, 183.296875 18 M183.296875 18 C66.2674423610312 18, -50.7619902779376 18, -183.296875 18 M183.296875 18 C104.4732024288618 18, 25.649529857723593 18, -183.296875 18 M-183.296875 18 C-183.296875 9.240211016332253, -183.296875 0.48042203266450656, -183.296875 -18 M-183.296875 18 C-183.296875 10.011084796779148, -183.296875 2.022169593558294, -183.296875 -18" stroke="#aaaa33" stroke-width="1.3" fill="none" stroke-dasharray="0 0" style="fill:#fff5ad !important;stroke:#aaaa33 !important"/></g><g class="label noteLabel" style="text-align:left !important;white-space:nowrap !important" transform="translate(-177.296875, -12)"><rect/><foreignObject width="354.59375" height="24"><div style="text-align: center; white-space: break-spaces; display: table; line-height: 1.5; max-width: 200px; width: 200px;" xmlns="http://www.w3.org/1999/xhtml"><span style="text-align:left !important;white-space:nowrap !important" class="nodeLabel markdown-node-label"><p>status: submitted | working\n         completed | failed</p></span></div></foreignObject></g></g></g></g></g><defs><filter id="my-svg-drop-shadow" height="130%" width="130%"><feDropShadow dx="4" dy="4" stdDeviation="0" flood-opacity="0.06" flood-color="#000000"/></filter></defs><defs><filter id="my-svg-drop-shadow-small" height="150%" width="150%"><feDropShadow dx="2" dy="2" stdDeviation="0" flood-opacity="0.06" flood-color="#000000"/></filter></defs></svg>